<svg id="Layer_1" data-name="Layer 1" xmlns="http://www.w3.org/2000/svg" viewBox="0 0 238.24 53.22"><defs><style>.cls-1{fill:#fff;}.cls-2{fill:#97d700;}</style></defs><title>sunquest-logo-white</title><path class="cls-1" d="M7.33,44.75a19.36,19.36,0,0,0,8.53,2.41c3,0,4.23-1,4.23-2.67s-1-2.41-4.69-3.65C8.83,38.63,6.29,35,6.36,31.27c0-5.93,5.08-10.42,13-10.42a21.37,21.37,0,0,1,9,1.82l-1.76,6.84a15.63,15.63,0,0,0-6.9-1.82c-2.41,0-3.78,1-3.78,2.61S17.1,32.57,21,33.94c6.06,2.08,8.6,5.15,8.66,9.84,0,5.93-4.69,10.29-13.81,10.29A22.56,22.56,0,0,1,5.57,51.85Z" transform="translate(-5.57 -13.09)"/><path class="cls-1" d="M62.77,43.19c0,4.17.13,7.56.26,10.23h-8.6L54,48.92h-.2a11.36,11.36,0,0,1-10,5.21c-6.45,0-11.2-4-11.2-13.87V21.56h10V38.69c0,4.63,1.5,7.43,5,7.43a5.33,5.33,0,0,0,5-3.45,5.54,5.54,0,0,0,.33-2.15v-19h10Z" transform="translate(-5.57 -13.09)"/><path class="cls-1" d="M67.78,31.72c0-4-.13-7.36-.26-10.16h8.6l.46,4.36h.2a11.66,11.66,0,0,1,9.84-5.08c6.51,0,11.4,4.3,11.4,13.68V53.41h-9.9V35.76c0-4.1-1.43-6.9-5-6.9a5.28,5.28,0,0,0-5,3.71A6.8,6.8,0,0,0,77.69,35V53.41h-9.9Z" transform="translate(-5.57 -13.09)"/><path class="cls-1" d="M125.17,48H125c-1.5,3.19-5.21,6.12-10.75,6.12-7.69,0-13.48-6.51-13.48-15.76,0-12.12,7.82-16.94,14.4-16.94,5.41,0,8.79,2.93,10.23,6.06h.13l.13-5.34h2.87c-.13,2.35-.26,4.82-.26,8.08V66.31h-3.06Zm0-13.55a13.81,13.81,0,0,0-.33-2.87A10.07,10.07,0,0,0,115.08,24c-6.84,0-11.2,5.8-11.2,14,0,7,3.26,13.55,10.94,13.55,4.23,0,8.08-2.54,9.77-7.3a9.82,9.82,0,0,0,.59-3.06Z" transform="translate(-5.57 -13.09)"/><path class="cls-1" d="M157.81,45.79c0,2.74.13,5.21.26,7.62H155.2l-.2-5.54h-.13a12.13,12.13,0,0,1-10.75,6.25c-4,0-10.62-2-10.62-13.81V22.15h3.06V39.73c0,6.77,2.15,11.66,8.34,11.66a10.17,10.17,0,0,0,9.19-6.32,11.22,11.22,0,0,0,.65-3.45V22.15h3.06Z" transform="translate(-5.57 -13.09)"/><path class="cls-1" d="M164.91,37.45c0,10,5.47,13.94,11.92,13.94a18.16,18.16,0,0,0,8.66-1.76l.78,2.48c-1.17.65-4.36,2-9.84,2-9,0-14.59-6.51-14.59-15.7,0-10.42,6-16.94,14.07-16.94,10.23,0,12.18,9.64,12.18,14.14a7.77,7.77,0,0,1-.13,1.89ZM184.84,35c.06-4.36-1.76-11-9.31-11-6.9,0-9.9,6.19-10.42,11Z" transform="translate(-5.57 -13.09)"/><path class="cls-1" d="M191.49,49.31a13.83,13.83,0,0,0,7,2.15c5,0,7.3-2.67,7.3-5.93,0-3.45-2.08-5.28-6.58-7.1-5.15-2-7.95-4.76-7.95-8.53,0-4.49,3.52-8.47,9.64-8.47a12.4,12.4,0,0,1,6.9,2l-1.24,2.54A10.13,10.13,0,0,0,200.41,24c-4,0-6.06,2.54-6.06,5.41,0,3.26,2.21,4.69,6.45,6.45,5.08,2,8.08,4.49,8.08,9.25,0,5.34-4.17,8.92-10.55,8.92a15.17,15.17,0,0,1-7.95-2.15Z" transform="translate(-5.57 -13.09)"/><path class="cls-1" d="M218.78,13.09v9.05h8.92v2.48h-8.92V44.94c0,4,1.24,6.51,4.56,6.51a11.28,11.28,0,0,0,3.58-.52l.39,2.41a12.37,12.37,0,0,1-4.36.72,6.48,6.48,0,0,1-5.34-2.21c-1.43-1.63-2-4.23-2-7.43V24.62h-5.28V22.15h5.28V14.07Z" transform="translate(-5.57 -13.09)"/><circle class="cls-2" cx="231.6" cy="34.13" r="6.64"/></svg>